<?xml version="1.0" encoding="UTF-8"?>
<!DOCTYPE svg PUBLIC "-//W3C//DTD SVG 1.1//EN" "http://www.w3.org/Graphics/SVG/1.1/DTD/svg11.dtd">
<!-- Creator: CorelDRAW 2018 (64-Bit) -->
<svg xmlns="http://www.w3.org/2000/svg" xml:space="preserve" width="45.7032mm" height="55.1741mm" version="1.1" style="shape-rendering:geometricPrecision; text-rendering:geometricPrecision; image-rendering:optimizeQuality; fill-rule:evenodd; clip-rule:evenodd"
viewBox="0 0 4618.01 5574.99"
 xmlns:xlink="http://www.w3.org/1999/xlink">
 <defs>
  <style type="text/css">
   <![CDATA[
    .fil1 {fill:none}
    .fil3 {fill:#A7D0F1}
    .fil0 {fill:#FBC7A8}
    .fil2 {fill:#A7D0F1;fill-opacity:0.749020}
   ]]>
  </style>
   <clipPath id="id0">
    <path d="M280.07 0l2660.08 0 0 2670.52 -2660.08 0 0 -2670.52zm0 0z"/>
   </clipPath>
   <clipPath id="id1">
    <path d="M1630.17 1360.53l2660.08 0 0 2649.63 -2660.08 0 0 -2649.63zm0 0z"/>
   </clipPath>
 </defs>
 <g id="Warstwa_x0020_1">
  <metadata id="CorelCorpID_0Corel-Layer"/>
  <g>
  </g>
  <g style="clip-path:url(#id0)">
   <g>
    <path class="fil0" d="M2929.39 2644.82l-2008.95 0.11c-353.92,0 -640.16,-286.87 -640.16,-641.21 0,-354.23 286.87,-641.53 640.79,-641.53l723.3 0.11 0.1 -724.75c1.98,-352.46 287.81,-637.55 640.37,-637.55 352.35,0 638.28,285.09 640.27,637.55l4.27 2007.27zm0 0z"/>
   </g>
  </g>
  <path class="fil1" d="M280.07 0l2660.08 0 0 2670.52 -2660.08 0 0 -2670.52zm0 0z"/>
  <g>
  </g>
  <g style="clip-path:url(#id1)">
   <g>
    <path class="fil2" d="M2919.27 1362.2l730.49 0.94c353.6,0 640.27,286.98 640.27,641 0,354.13 -283.21,640.69 -636.83,640.69l-723.82 0 -0.83 724.86c0,353.71 -286.36,640.48 -639.75,640.48 -353.3,0 -640.48,-286.77 -640.48,-640.59l0 -724.75c0,-640.47 611.34,-1283.35 1270.94,-1282.63zm0 0z"/>
   </g>
  </g>
  <path class="fil1" d="M1630.17 1360.53l2660.08 0 0 2649.63 -2660.08 0 0 -2649.63zm0 0z"/>
  <g>
   <g>
    <g id="_2407742171824">
     <path class="fil3" d="M-0 5558.69l0 -959.51 655.41 0 0 175.44 -470.36 0 0 201.76 276.95 0 0 175.44 -276.95 0 0 231.42 499.19 0 0 175.44 -684.24 0zm0 0z"/>
    </g>
   </g>
  </g>
  <g>
   <g>
    <g id="_2407742172496">
     <path class="fil3" d="M774.58 5239.55l0 -171.68 359.24 0 0 171.68 -359.24 0zm0 0z"/>
    </g>
   </g>
  </g>
  <g>
   <g>
    <g id="_2407742201072">
     <path class="fil3" d="M2036.83 5558.69l-164.17 0 -381.38 -559.33c-12.54,-19.22 -25.8,-43.45 -39.69,-72.69 2.72,22.88 4.18,47.1 4.18,72.69l0 559.33 -183.8 0 0 -959.51 174.19 0 371.36 552.65c15.56,25.38 28.83,49.5 39.68,72.27 -2.51,-21.72 -3.76,-45.74 -3.76,-72.27l0 -552.65 183.38 0 0 959.51zm0 0z"/>
    </g>
   </g>
  </g>
  <g>
   <g>
    <g id="_2407739270720">
     <path class="fil3" d="M2601.47 5558.69l0 -65.58c-43.76,54.61 -106.32,81.88 -187.57,81.88 -68.51,0 -126.57,-21.83 -174.19,-65.59 -47.41,-43.96 -71.01,-113.83 -71.01,-209.7l0 -441.54 177.95 0 0 383.89c0,55.77 9.72,96.7 29.24,122.81 19.74,25.9 50.65,38.85 92.74,38.85 88.55,0 132.84,-52.85 132.84,-158.74l0 -386.81 178.36 0 0 700.52 -178.36 0zm0 0z"/>
    </g>
   </g>
  </g>
  <g>
   <g>
    <g id="_2407739276608">
     <path class="fil3" d="M2911.44 5558.69l0 -700.52 178.36 0 0 61.83c24.44,-52.01 67.78,-78.12 129.91,-78.12 52.01,0 99.63,17.85 142.87,53.47l-25.06 162.91c-38.22,-27.26 -80.62,-40.94 -127.41,-40.94 -80.21,0 -120.31,50.34 -120.31,150.8l0 390.57 -178.36 0zm0 0z"/>
    </g>
   </g>
  </g>
  <g>
   <g>
    <g id="_2407739275232">
     <path class="fil3" d="M3643.58 5574.99c-56.81,0 -110.91,-11.49 -162.07,-34.25 -50.97,-22.77 -90.23,-53.26 -117.8,-91.48l117.8 -100.26c50.33,50.13 105.27,75.2 164.58,75.2 70.39,0 105.68,-20.47 105.68,-61.41 0,-19.21 -9.5,-34.88 -28.4,-47.2 -18.69,-12.53 -51.69,-27.78 -99,-45.95 -83.33,-27.56 -144.11,-58.47 -182.55,-92.73 -38.43,-34.25 -57.65,-80.21 -57.65,-137.85 0,-60.99 24.23,-109.03 72.69,-144.12 48.45,-35.29 109.23,-53.05 182.55,-53.05 105.78,0 191.1,37.49 256.06,112.37l-119.05 97.33c-42.09,-39.27 -87.73,-58.9 -137.02,-58.9 -59.64,0 -89.39,17.44 -89.39,52.22 0,29.24 45.74,57.54 137.43,84.8 72.89,23.7 129.5,52.63 169.59,86.89 40.32,34.25 60.58,83.03 60.58,146.2 0,67.68 -24.86,120.1 -74.36,157.07 -49.29,36.76 -115.92,55.14 -199.67,55.14zm0 0z"/>
    </g>
   </g>
  </g>
  <g>
   <g>
    <g id="_2407739277920">
     <path class="fil3" d="M4308.06 5574.99c-101.41,0 -181.29,-32.37 -239.78,-97.34 -58.48,-64.85 -87.73,-154.77 -87.73,-269.85 0,-112.47 29.35,-201.55 88.14,-267.34 59.01,-65.69 138.79,-98.59 239.36,-98.59 91.27,0 165.83,28.2 223.48,84.38 57.66,56.29 86.47,138.27 86.47,246.04 0,44.9 -1.88,80 -5.43,105.27l-456.58 0c3.55,44.07 19.73,78.53 48.45,103.59 28.93,25.07 63.5,37.6 103.6,37.6 62.03,0 112.37,-24.23 150.8,-72.68l109.86 111.12c-64.96,78.53 -151.85,117.8 -260.66,117.8zm-150.8 -448.22l286.56 0c-5.64,-40.1 -20.47,-71.54 -44.7,-94.4 -24.22,-22.78 -54.61,-34.25 -91.06,-34.25 -89.39,0 -139.73,42.91 -150.8,128.66zm0 0z"/>
    </g>
   </g>
  </g>
 </g>
</svg>
