<svg xmlns="http://www.w3.org/2000/svg" width="30" viewBox="0 0 30 37.5" height="37.5" version="1.0"><defs><clipPath id="a"><path d="M 1.679688 1.144531 L 28.324219 1.144531 L 28.324219 35.929688 L 1.679688 35.929688 Z M 1.679688 1.144531"/></clipPath></defs><g clip-path="url(#a)"><path fill="#646464" d="M 27.09375 29.289062 L 25.453125 29.289062 L 25.453125 16.164062 C 25.453125 11.40625 22.277344 7.378906 17.941406 6.082031 C 18.171875 5.628906 18.3125 5.121094 18.3125 4.578125 C 18.3125 2.71875 16.800781 1.207031 14.945312 1.207031 C 13.089844 1.207031 11.578125 2.71875 11.578125 4.578125 C 11.578125 5.121094 11.71875 5.628906 11.949219 6.082031 C 7.613281 7.378906 4.4375 11.40625 4.4375 16.164062 L 4.4375 29.289062 L 2.796875 29.289062 C 2.160156 29.289062 1.644531 29.808594 1.644531 30.445312 C 1.644531 31.082031 2.160156 31.601562 2.796875 31.601562 L 9.792969 31.601562 C 10.261719 34.027344 12.390625 35.867188 14.945312 35.867188 C 17.5 35.867188 19.632812 34.027344 20.097656 31.601562 L 27.09375 31.601562 C 27.730469 31.601562 28.246094 31.082031 28.246094 30.445312 C 28.246094 29.808594 27.730469 29.289062 27.09375 29.289062 Z M 13.886719 4.578125 C 13.886719 3.996094 14.363281 3.519531 14.945312 3.519531 C 15.53125 3.519531 16.003906 3.996094 16.003906 4.578125 C 16.003906 5.164062 15.53125 5.640625 14.945312 5.640625 C 14.363281 5.640625 13.886719 5.164062 13.886719 4.578125 Z M 14.945312 33.554688 C 13.667969 33.554688 12.582031 32.738281 12.171875 31.601562 L 17.71875 31.601562 C 17.308594 32.738281 16.222656 33.554688 14.945312 33.554688 Z M 19.046875 29.289062 L 6.746094 29.289062 L 6.746094 16.164062 C 6.746094 11.636719 10.425781 7.949219 14.945312 7.949219 C 19.46875 7.949219 23.144531 11.636719 23.144531 16.164062 L 23.144531 29.289062 Z M 19.046875 29.289062"/></g></svg>