<svg xmlns="http://www.w3.org/2000/svg" width="30" viewBox="0 0 30 30" height="30" version="1.0"><defs><clipPath id="a"><path d="M 0.882812 0.398438 L 29.191406 0.398438 L 29.191406 28.707031 L 0.882812 28.707031 Z M 0.882812 0.398438"/></clipPath></defs><g clip-path="url(#a)"><path fill="#646464" d="M 27.378906 11.101562 C 27.378906 11.101562 25.933594 11.019531 25.933594 11.019531 C 25.75 10.449219 25.515625 9.886719 25.226562 9.324219 L 26.203125 8.261719 C 26.890625 7.515625 26.867188 6.371094 26.152344 5.648438 L 23.9375 3.4375 C 23.222656 2.71875 22.074219 2.699219 21.328125 3.382812 L 20.238281 4.34375 C 19.703125 4.074219 19.140625 3.839844 18.546875 3.648438 L 18.488281 2.207031 C 18.445312 1.195312 17.617188 0.398438 16.601562 0.398438 C 16.601562 0.398438 13.46875 0.398438 13.46875 0.398438 C 12.457031 0.398438 11.628906 1.195312 11.585938 2.210938 C 11.585938 2.210938 11.5 3.65625 11.5 3.65625 C 10.929688 3.839844 10.371094 4.074219 9.808594 4.363281 C 9.808594 4.363281 8.746094 3.382812 8.746094 3.382812 C 8 2.695312 6.851562 2.722656 6.132812 3.4375 L 3.921875 5.652344 C 3.203125 6.371094 3.179688 7.515625 3.867188 8.261719 L 4.828125 9.347656 C 4.554688 9.886719 4.324219 10.449219 4.132812 11.042969 L 2.691406 11.101562 C 1.675781 11.144531 0.882812 11.972656 0.882812 12.984375 L 0.882812 16.117188 C 0.882812 17.132812 1.675781 17.960938 2.695312 18.003906 L 4.136719 18.085938 C 4.324219 18.660156 4.558594 19.21875 4.84375 19.78125 L 3.867188 20.84375 C 3.179688 21.589844 3.203125 22.734375 3.921875 23.457031 L 6.132812 25.667969 C 6.851562 26.386719 8.003906 26.40625 8.746094 25.722656 L 9.832031 24.757812 C 10.371094 25.03125 10.929688 25.265625 11.527344 25.453125 L 11.585938 26.898438 C 11.628906 27.910156 12.457031 28.707031 13.46875 28.707031 C 13.46875 28.707031 16.601562 28.707031 16.601562 28.707031 C 17.617188 28.707031 18.445312 27.910156 18.488281 26.894531 C 18.488281 26.894531 18.570312 25.449219 18.570312 25.449219 C 19.140625 25.265625 19.703125 25.03125 20.261719 24.742188 L 21.324219 25.71875 C 22.074219 26.410156 23.21875 26.386719 23.9375 25.667969 L 26.152344 23.453125 C 26.867188 22.734375 26.890625 21.589844 26.203125 20.84375 L 25.242188 19.753906 C 25.515625 19.210938 25.761719 18.644531 25.9375 18.0625 C 25.9375 18.0625 27.378906 18.003906 27.378906 18.003906 C 28.394531 17.960938 29.191406 17.132812 29.191406 16.117188 L 29.191406 12.984375 C 29.191406 11.972656 28.394531 11.144531 27.378906 11.101562 Z M 25.863281 16.175781 C 24.339844 16.179688 24.105469 17.8125 23.5625 18.902344 C 23.191406 19.625 23.300781 20.472656 23.835938 21.058594 C 23.835938 21.058594 24.816406 22.121094 24.816406 22.121094 L 22.605469 24.332031 L 21.539062 23.355469 C 20.460938 22.28125 19.136719 23.273438 17.984375 23.65625 C 17.214844 23.910156 16.691406 24.585938 16.660156 25.378906 L 16.601562 26.820312 L 13.46875 26.820312 L 13.410156 25.378906 C 13.378906 24.585938 12.859375 23.910156 12.085938 23.65625 C 10.929688 23.277344 9.625 22.28125 8.53125 23.355469 C 8.53125 23.355469 7.46875 24.332031 7.46875 24.332031 L 5.257812 22.121094 L 6.234375 21.058594 C 7.308594 19.976562 6.316406 18.652344 5.933594 17.5 C 5.679688 16.730469 5.003906 16.210938 4.210938 16.175781 C 4.210938 16.175781 2.769531 16.117188 2.769531 16.117188 L 2.769531 12.984375 C 2.769531 12.984375 4.210938 12.929688 4.210938 12.929688 C 5.003906 12.894531 5.679688 12.375 5.933594 11.601562 C 6.316406 10.453125 7.304688 9.125 6.234375 8.046875 C 6.234375 8.046875 5.257812 6.984375 5.257812 6.984375 C 5.257812 6.984375 7.46875 4.773438 7.46875 4.773438 L 8.53125 5.75 C 9.613281 6.824219 10.933594 5.832031 12.085938 5.449219 C 12.859375 5.195312 13.378906 4.519531 13.410156 3.726562 L 13.46875 2.285156 L 16.601562 2.285156 L 16.660156 3.726562 C 16.691406 4.519531 17.214844 5.195312 17.988281 5.449219 C 19.136719 5.832031 20.464844 6.816406 21.539062 5.75 C 21.539062 5.75 22.605469 4.773438 22.605469 4.773438 L 24.816406 6.984375 L 23.835938 8.046875 C 23.300781 8.632812 23.191406 9.480469 23.558594 10.203125 C 24.101562 11.292969 24.34375 12.921875 25.863281 12.929688 C 25.863281 12.929688 27.300781 12.984375 27.300781 12.984375 L 27.304688 16.117188 Z M 25.863281 16.175781"/></g><path fill="#646464" d="M 15.035156 7.847656 C 11.339844 7.847656 8.332031 10.855469 8.332031 14.550781 C 8.332031 18.25 11.339844 21.257812 15.035156 21.257812 C 18.730469 21.257812 21.738281 18.25 21.738281 14.550781 C 21.738281 10.855469 18.730469 7.847656 15.035156 7.847656 Z M 15.035156 19.367188 C 12.378906 19.367188 10.21875 17.207031 10.21875 14.550781 C 10.21875 11.898438 12.378906 9.734375 15.035156 9.734375 C 17.691406 9.734375 19.851562 11.898438 19.851562 14.550781 C 19.851562 17.207031 17.691406 19.367188 15.035156 19.367188 Z M 15.035156 19.367188"/></svg>